<?xml version="1.0" encoding="UTF-8"?>
<svg viewBox="0 0 30 30" xmlns="http://www.w3.org/2000/svg">
<path transform="translate(5.1753 4.9919)" d="m1.3268 20.277l5.1583-2.2121c0.27962-0.1398 0.50716-0.5915 0.66735-0.9136 0.14434-0.2909-0.07132-0.6334-0.39622-0.6334h-3.6481s-1.3189-0.129-2.336-0.566c-0.59604-0.2558-0.80094-0.5938-0.42849-1.1241 1.0896-1.551 3.3419-5.2031 3.4149-8.9746 0 0 0.12509-5.8058 5.8528-5.8528 3.3413 0.027736 4.9195 1.9941 5.6547 3.6283 0.4098 0.91189 0.5859 1.9058 0.6515 2.9032 0.2378 3.5949 2.0683 6.883 2.9214 8.2879 0.2892 0.4766 0.1494 1.1112-0.3289 1.3976-0.7845 0.4692-1.7451 0.3005-1.7451 0.3005h-3.6724c-0.3589 0-0.5174 0.5016-0.2355 0.724 0.2298 0.1811 0.4489 0.3447 0.5672 0.4093l4.2905 2.5964c0.6193 0.3379 1.1134 0.8394 1.4496 1.4315-2.5749 2.0813-5.8505 3.3294-9.4194 3.3294-3.7211 0-7.1236-1.3579-9.7449-3.6017 0.34245-0.467 0.78906-0.8609 1.3268-1.1298z" fill="#E0E0E0"/>
<path d="m15 0c-8.2845 0-15 6.716-15 15 0 4.5408 2.0208 8.6072 5.2087 11.358 0.33849-0.4489 0.77207-0.8287 1.294-1.0896l5.1583-2.2121c0.2797-0.1398 0.5072-0.5915 0.6674-0.9136 0.1443-0.2909-0.0713-0.6334-0.3962-0.6334h-3.6481s-1.3189-0.129-2.336-0.566c-0.59603-0.2559-0.80094-0.5938-0.42849-1.1242 1.0896-1.5509 3.3419-5.203 3.4149-8.9745 0 0 0.12509-5.8058 5.8529-5.8528 3.3413 0.02773 4.9194 1.9942 5.6547 3.6283 0.4098 0.91188 0.5858 1.9058 0.6515 2.9032 0.2377 3.5949 2.0683 6.883 2.9213 8.2879 0.2893 0.4766 0.1495 1.1112-0.3288 1.3976-0.7851 0.4692-1.7457 0.3005-1.7457 0.3005h-3.6725c-0.3588 0-0.5173 0.5015-0.2354 0.724 0.2298 0.1811 0.4488 0.3447 0.5671 0.4092l4.2906 2.5965c0.6147 0.3351 1.1049 0.8315 1.4406 1.4179 0.0147 0.0141 0.0311 0.0271 0.0452 0.0424 3.4263-2.7486 5.6242-6.9651 5.6242-11.699 0-8.284-6.7155-15-15-15z" fill="#788996"/>
</svg>
